<?xml version="1.0" encoding="UTF-8" standalone="no"?>
<!-- Created with Inkscape (http://www.inkscape.org/) -->

<svg
   xmlns:dc="http://purl.org/dc/elements/1.1/"
   xmlns:cc="http://creativecommons.org/ns#"
   xmlns:rdf="http://www.w3.org/1999/02/22-rdf-syntax-ns#"
   xmlns:svg="http://www.w3.org/2000/svg"
   xmlns="http://www.w3.org/2000/svg"
   xmlns:sodipodi="http://sodipodi.sourceforge.net/DTD/sodipodi-0.dtd"
   xmlns:inkscape="http://www.inkscape.org/namespaces/inkscape"
   width="160"
   height="32"
   id="svg2986"
   version="1.1"
   inkscape:version="0.48.5 r10040"
   sodipodi:docname="bw_social-share-button@512.svg">
  <defs
     id="defs2988" />
  <sodipodi:namedview
     id="base"
     pagecolor="#ffffff"
     bordercolor="#666666"
     borderopacity="1.0"
     inkscape:pageopacity="0.0"
     inkscape:pageshadow="2"
     inkscape:zoom="0.52171875"
     inkscape:cx="-337.03854"
     inkscape:cy="129.29539"
     inkscape:document-units="px"
     inkscape:current-layer="layer2"
     showgrid="true"
     inkscape:snap-global="false"
     inkscape:window-width="1081"
     inkscape:window-height="912"
     inkscape:window-x="735"
     inkscape:window-y="71"
     inkscape:window-maximized="0">
    <inkscape:grid
       type="xygrid"
       id="grid3002"
       empspacing="5"
       visible="true"
       enabled="true"
       snapvisiblegridlinesonly="true" />
  </sodipodi:namedview>
  <metadata
     id="metadata2991">
    <rdf:RDF>
      <cc:Work
         rdf:about="">
        <dc:format>image/svg+xml</dc:format>
        <dc:type
           rdf:resource="http://purl.org/dc/dcmitype/StillImage" />
        <dc:title />
      </cc:Work>
    </rdf:RDF>
  </metadata>
  <g
     inkscape:label="Layer 1"
     inkscape:groupmode="layer"
     id="layer1"
     transform="translate(0,-1020.3621)" />
  <g
     inkscape:groupmode="layer"
     id="layer2"
     inkscape:label="icons"
     transform="translate(0,-1020.3621)">
    <path
       inkscape:connector-curvature="0"
       d="M 26.667,1020.3622 H 5.333875 c -2.9335,0 -5.333875,2.4004 -5.333875,5.334 v 21.3321 c 0,2.9355 2.400375,5.3339 5.333875,5.3339 l 21.333125,-10e-5 c 2.933625,0 5.333,-2.3983 5.333,-5.334 v -21.3319 c 0,-2.9336 -2.399438,-5.334 -5.333,-5.334 z m 0.539,16 H 22 v 14 h -6 v -14 h -2.891437 v -4.5801 H 16 v -2.9746 c 0,-4.0419 1.7435,-6.4453 6.495937,-6.4453 h 5.476375 v 4.9553 h -4.472749 c -1.327563,-0 -1.49225,0.6923 -1.49225,1.9848 L 22,1031.7821 h 6 l -0.794,4.5801 z"
       id="path3" />
    <path
       inkscape:connector-curvature="0"
       d="m 58.66694,1020.3622 h -21.333 c -2.93357,0 -5.33394,2.4003 -5.33394,5.3341 v 21.3319 c 0,2.9356 2.40037,5.334 5.33394,5.334 h 21.333 c 2.93362,0 5.33306,-2.3984 5.33306,-5.3341 v -21.3318 c 0,-2.9338 -2.39944,-5.3341 -5.33306,-5.3341 z m -0.47782,10.6823 c 0.0103,0.2294 0.0153,0.4603 0.0153,0.6921 0,7.0692 -5.288,15.2209 -14.95813,15.2209 -2.96887,0 -5.73231,-0.8859 -8.05894,-2.4037 0.41125,0.05 0.82975,0.075 1.25407,0.075 2.46318,0 4.72993,-0.8553 6.52918,-2.2901 -2.3005,-0.043 -4.242,-1.5899 -4.91106,-3.715 0.32106,0.062 0.65038,0.096 0.98913,0.096 0.4795,0 0.94393,-0.065 1.385,-0.1877 -2.405,-0.4917 -4.21719,-2.6537 -4.21719,-5.2455 0,-0.023 0,-0.045 6.2e-4,-0.067 0.70875,0.4006 1.5195,0.6413 2.38125,0.6691 -1.41068,-0.9593 -2.33881,-2.5967 -2.33881,-4.4528 0,-0.9803 0.25919,-1.8993 0.71181,-2.6893 2.59294,3.2366 6.46676,5.3663 10.83607,5.5894 -0.0897,-0.3916 -0.13619,-0.7998 -0.13619,-1.2191 0,-2.9544 2.354,-5.3494 5.25719,-5.3494 1.51218,0 2.87875,0.6495 3.83756,1.6893 1.1975,-0.2399 2.32262,-0.685 3.3385,-1.2982 -0.39256,1.2493 -1.22606,2.2976 -2.31137,2.9597 1.06331,-0.1293 2.07662,-0.4169 3.01937,-0.8423 -0.70456,1.0727 -1.59594,2.0149 -2.62325,2.7691 z"
       id="path3-6" />
    <path
       inkscape:connector-curvature="0"
       d="m 64.025187,1047.5392 c -0.0076,-0.079 -0.01413,-0.1584 -0.01825,-0.2384 0.0041,0.08 0.01062,0.1593 0.01825,0.2384 z m 7.346938,-9.5161 c 2.875313,0.085 4.804187,-2.8968 4.308187,-6.6625 -0.496687,-3.765 -3.231125,-6.7865 -6.106499,-6.8725 -2.875813,-0.085 -4.804376,2.7963 -4.307876,6.5625 0.496313,3.7646 3.229751,6.8867 6.106188,6.9725 z M 96,1028.3622 v -2.6659 c 0,-2.9338 -2.399438,-5.3341 -5.333062,-5.3341 h -21.333 c -2.883626,0 -5.250376,2.3197 -5.330126,5.1852 1.823813,-1.6058 4.353875,-2.9474 6.964813,-2.9474 2.79075,0 11.163875,0 11.163875,0 l -2.498375,2.1131 H 76.0945 c 2.347812,0.9001 3.598625,3.6288 3.598625,6.4288 0,2.3515 -1.306563,4.3735 -3.15275,5.8115 -1.801375,1.4032 -2.142875,1.9909 -2.142875,3.1837 0,1.018 1.929562,2.75 2.9385,3.4621 2.949375,2.0793 3.903625,4.0097 3.903625,7.233 0,0.5134 -0.06381,1.0259 -0.189563,1.53 H 90.667 c 2.933562,0 5.333,-2.3985 5.333,-5.3341 v -16.6658 h -6 v 5.9999 h -2 v -6 h -5.999938 v -2 H 88 v -6 h 2 v 6 h 6 z m -26.191063,15.9355 c 0.675438,0 1.294438,-0.018 1.935501,-0.018 -0.848313,-0.823 -1.519563,-1.8313 -1.519563,-3.0744 0,-0.7377 0.236375,-1.448 0.566687,-2.0788 -0.336937,0.024 -0.680937,0.031 -1.035187,0.031 -2.323625,0 -4.297063,-0.7524 -5.756375,-1.9954 v 2.1013 l 0,6.304 c 1.67,-0.7929 3.65275,-1.2694 5.80875,-1.2694 z m -5.702062,3.7913 c -0.03475,-0.1706 -0.06144,-0.3439 -0.07944,-0.5197 0.01794,0.1758 0.04469,0.3491 0.07944,0.5197 z m 14.125937,2.0496 c -0.470562,-1.8377 -2.139187,-2.7488 -4.46525,-4.3615 -0.846,-0.2728 -1.777937,-0.4335 -2.777937,-0.444 -2.800563,-0.03 -5.409625,1.092 -6.88175,2.7617 0.4975,2.4283 2.657312,4.2674 5.226062,4.2674 h 8.951376 c 0.05675,-0.3478 0.08425,-0.7073 0.08425,-1.076 0,-0.3917 -0.04794,-0.7748 -0.13675,-1.1476 z"
       id="path3-7" />
    <path
       inkscape:connector-curvature="0"
       d="m 122.66811,1020.3621 h -21.33416 c -2.933695,0 -5.33395,2.4005 -5.33395,5.334 v 21.3321 c 0,2.9355 2.400255,5.334 5.33395,5.334 h 21.33416 c 2.93345,0 5.33189,-2.3985 5.33189,-5.334 v -21.3322 c 0,-2.9334 -2.39869,-5.3339 -5.33189,-5.3339 z m -3.802,25.7716 c -0.94225,0.4434 -1.79782,0.7559 -2.56251,0.9355 -0.7655,0.1779 -1.5925,0.2675 -2.48132,0.2675 -1.00975,0 -1.6055,-0.1268 -2.38087,-0.3809 -0.77526,-0.2559 -1.43751,-0.6211 -1.98438,-1.0898 -0.54869,-0.4727 -0.92769,-0.9749 -1.13957,-1.5061 -0.212,-0.5313 -0.31737,-1.3028 -0.31737,-2.3126 v -7.7438 h -2.99988 v -3.127 c 0.867,-0.2813 1.873,-0.6855 2.49012,-1.211 0.62001,-0.5272 1.11619,-1.158 1.49013,-1.8964 0.37513,-0.7364 0.63282,-1.6758 0.7735,-2.8145 h 3.14064 v 5.1076 h 5.10538 v 3.9414 h -5.10557 v 5.6621 c 0,1.2813 -0.0165,2.0196 0.11925,2.3828 0.13475,0.3613 0.47269,0.7363 0.84069,0.9532 0.48925,0.293 1.047,0.4394 1.67581,0.4394 1.11832,0 2.23051,-0.3634 3.33595,-1.0899 v 3.4825 l 0,0 z"
       id="path3-0" />
    <path
       inkscape:connector-curvature="0"
       d="m 154.66719,1020.3622 h -21.33444 c -2.94531,0 -5.33275,2.3881 -5.33275,5.3339 v 21.3322 c 0,2.9458 2.38744,5.3339 5.33275,5.3339 h 21.33444 c 2.94531,0 5.33281,-2.3881 5.33281,-5.3339 v -21.3322 c 0,-2.9458 -2.3875,-5.3339 -5.33281,-5.3339 z m -9.11582,21.3787 c -1.45375,-0.113 -2.06381,-0.833 -3.20325,-1.5253 -0.62687,3.2869 -1.39256,6.4382 -3.66056,8.0841 -0.70012,-4.9677 1.02794,-8.6989 1.83031,-12.6598 -1.36831,-2.3033 0.16469,-6.9386 3.05063,-5.7961 3.55081,1.4046 -3.075,8.5628 1.37287,9.4568 4.64438,0.9334 6.54025,-8.0581 3.66063,-10.982 -4.16113,-4.2221 -12.11244,-0.096 -11.13469,5.9486 0.23794,1.4779 1.76475,1.9262 0.61013,3.9657 -2.66313,-0.5903 -3.45782,-2.6907 -3.3555,-5.491 0.16462,-4.5835 4.11825,-7.7926 8.08394,-8.2364 5.01512,-0.5614 9.72206,1.8409 10.37206,6.5586 0.73162,5.3245 -2.264,11.0914 -7.62657,10.6768 z"
       id="path3-79" />
  </g>
</svg>
