<?xml version="1.0" encoding="UTF-8" standalone="no"?>
<svg
   xmlns:dc="http://purl.org/dc/elements/1.1/"
   xmlns:cc="http://creativecommons.org/ns#"
   xmlns:rdf="http://www.w3.org/1999/02/22-rdf-syntax-ns#"
   xmlns:svg="http://www.w3.org/2000/svg"
   xmlns="http://www.w3.org/2000/svg"
   xmlns:sodipodi="http://sodipodi.sourceforge.net/DTD/sodipodi-0.dtd"
   xmlns:inkscape="http://www.inkscape.org/namespaces/inkscape"
   width="160pt"
   height="128pt"
   viewBox="0 0 160 128"
   version="1.1"
   id="svg2"
   inkscape:version="0.48.5 r10040"
   sodipodi:docname="social-share-button@2x.svg">
  <metadata
     id="metadata334">
    <rdf:RDF>
      <cc:Work
         rdf:about="">
        <dc:format>image/svg+xml</dc:format>
        <dc:type
           rdf:resource="http://purl.org/dc/dcmitype/StillImage" />
      </cc:Work>
    </rdf:RDF>
  </metadata>
  <defs
     id="defs332" />
  <sodipodi:namedview
     pagecolor="#ffffff"
     bordercolor="#666666"
     borderopacity="1"
     objecttolerance="10"
     gridtolerance="10"
     guidetolerance="10"
     inkscape:pageopacity="0"
     inkscape:pageshadow="2"
     inkscape:window-width="1920"
     inkscape:window-height="1068"
     id="namedview330"
     showgrid="false"
     inkscape:zoom="4.17193"
     inkscape:cx="109.86621"
     inkscape:cy="67.902977"
     inkscape:window-x="0"
     inkscape:window-y="0"
     inkscape:window-maximized="1"
     inkscape:current-layer="svg2" />
  <path
     fill="#6993e5"
     d=" M 2.00 0.00 L 30.44 0.00 C 30.29 1.22 30.81 2.08 31.99 2.57 C 31.96 4.13 31.93 5.69 31.88 7.25 C 31.58 7.62 30.99 8.36 30.69 8.74 C 30.41 7.12 30.13 5.50 29.84 3.89 C 29.76 3.48 29.59 2.67 29.51 2.26 C 20.48 1.97 11.42 1.85 2.39 2.27 C 2.33 2.70 2.21 3.56 2.14 3.99 C 2.00 5.47 1.90 6.95 1.84 8.43 C 1.38 8.25 0.46 7.89 0.00 7.70 L 0.00 1.56 C 1.26 1.86 1.93 1.33 2.00 0.00 Z"
     id="path6" />
  <path
     fill="#e4e4e4"
     d=" M 33.91 0.00 L 47.44 0.00 C 47.68 0.49 48.16 1.47 48.40 1.96 C 43.65 1.86 38.90 1.87 34.16 2.21 C 33.94 6.83 33.95 11.46 34.12 16.09 C 33.60 16.08 32.56 16.08 32.03 16.08 C 32.00 13.14 31.90 10.19 31.88 7.25 C 31.93 5.69 31.96 4.13 31.99 2.57 C 32.83 1.88 33.47 1.02 33.91 0.00 Z"
     id="path10" />
  <path
     fill="#4c85ef"
     d=" M 47.44 0.00 L 62.81 0.00 C 62.89 0.58 63.05 1.73 63.13 2.30 C 63.93 5.08 64.36 7.96 65.49 10.64 C 69.60 11.33 73.78 11.37 77.94 11.20 C 77.92 11.90 77.89 13.28 77.88 13.98 C 76.57 13.98 75.27 13.98 73.96 13.98 C 73.98 15.70 73.99 17.43 74.05 19.15 C 70.69 18.74 67.31 18.49 63.95 18.10 C 63.91 17.58 63.83 16.53 63.80 16.01 C 63.37 14.26 62.83 12.55 62.43 10.80 C 62.03 8.11 62.01 5.36 61.34 2.71 C 57.08 1.80 52.69 2.48 48.40 1.96 C 48.16 1.47 47.68 0.49 47.44 0.00 Z"
     id="path12" />
  <path
     fill="#6993e5"
     d=" M 66.39 0.00 L 93.73 0.00 C 94.48 0.92 95.25 1.84 96.01 2.75 C 95.94 4.97 95.96 7.19 95.94 9.41 C 95.49 8.99 94.58 8.16 94.12 7.74 C 93.97 6.47 93.81 5.19 93.66 3.92 C 91.83 3.89 90.01 3.82 88.19 3.78 C 85.56 3.72 82.92 3.84 80.34 4.33 C 75.72 3.27 70.95 3.18 66.27 3.86 C 66.03 6.12 65.78 8.38 65.49 10.64 C 64.36 7.96 63.93 5.08 63.13 2.30 C 64.68 2.55 65.65 1.11 66.39 0.00 Z"
     id="path16" />
  <path
     fill="#d73633"
     d=" M 98.86 0.00 L 125.63 0.00 C 126.11 0.81 126.64 1.60 127.21 2.37 C 127.55 3.38 127.84 4.41 128.16 5.43 C 128.11 9.92 127.28 14.94 130.35 18.71 C 130.41 20.31 130.53 21.90 130.61 23.50 C 130.81 25.55 128.85 28.59 131.20 29.80 C 135.02 30.92 139.08 30.31 143.01 30.41 C 147.58 30.22 152.25 30.94 156.75 29.88 C 158.39 28.44 157.96 25.65 158.65 23.68 C 158.99 23.77 159.66 23.97 160.00 24.06 L 160.00 29.78 C 158.65 31.04 157.06 32.23 155.09 32.00 C 147.39 31.99 139.69 32.12 131.99 31.94 C 130.25 32.02 129.17 30.50 127.92 29.55 C 127.01 30.35 126.09 31.15 125.14 31.90 C 119.35 32.61 113.50 32.15 107.68 32.07 C 107.90 31.47 108.35 30.27 108.57 29.67 C 114.31 29.97 120.06 30.05 125.81 29.82 C 126.14 25.24 126.15 20.64 126.02 16.05 C 125.89 11.72 126.49 7.27 125.12 3.07 C 120.97 1.24 116.36 2.13 111.97 1.99 C 107.60 2.13 103.02 1.29 98.87 3.06 C 97.49 7.23 98.10 11.67 98.07 15.98 C 98.05 20.55 98.07 25.12 98.29 29.69 C 100.70 29.76 103.12 29.83 105.53 29.90 C 105.48 30.44 105.38 31.51 105.32 32.05 C 103.17 32.05 101.01 32.05 98.86 32.02 C 97.92 31.13 96.99 30.24 96.06 29.35 C 96.01 27.93 95.97 26.51 95.95 25.10 C 95.93 22.83 95.94 20.56 95.94 18.29 C 95.93 15.33 95.93 12.37 95.94 9.41 C 95.96 7.19 95.94 4.97 96.01 2.75 C 96.90 1.77 97.86 0.86 98.86 0.00 Z"
     id="path20" />
  <path
     fill="#e16260"
     d=" M 130.36 0.00 L 158.37 0.00 C 158.10 1.25 158.65 1.90 160.00 1.93 L 160.00 7.30 C 159.48 7.23 158.44 7.11 157.93 7.04 C 155.65 4.48 153.04 1.84 149.28 2.08 C 142.95 1.64 136.59 1.71 130.27 2.16 C 130.06 3.71 129.87 5.27 129.69 6.83 C 129.31 6.48 128.54 5.78 128.16 5.43 C 127.84 4.41 127.55 3.38 127.21 2.37 C 128.72 2.47 129.57 1.04 130.36 0.00 Z"
     id="path24" />
  <path
     fill="#91b5fd"
     d=" M 2.39 2.27 C 11.42 1.85 20.48 1.97 29.51 2.26 C 29.59 2.67 29.76 3.48 29.84 3.89 C 27.50 4.11 25.16 4.33 22.82 4.59 C 22.05 4.18 21.28 3.77 20.51 3.36 C 19.57 3.56 18.63 3.77 17.69 3.98 C 16.77 4.18 15.86 4.39 14.94 4.60 C 14.44 4.33 13.44 3.80 12.94 3.53 C 12.21 3.58 10.75 3.68 10.02 3.73 C 7.40 3.89 4.77 3.95 2.14 3.99 C 2.21 3.56 2.33 2.70 2.39 2.27 Z"
     id="path28" />
  <path
     fill="#f9f9f9"
     d=" M 34.16 2.21 C 38.90 1.87 43.65 1.86 48.40 1.96 C 48.07 4.91 47.97 7.88 47.97 10.85 C 47.96 12.58 47.96 14.30 47.95 16.03 C 43.34 16.12 38.73 16.09 34.12 16.09 C 33.95 11.46 33.94 6.83 34.16 2.21 Z"
     id="path30" />
  <path
     fill="#428eff"
     d=" M 48.40 1.96 C 52.69 2.48 57.08 1.80 61.34 2.71 C 62.01 5.36 62.03 8.11 62.43 10.80 C 57.61 10.83 52.79 10.82 47.97 10.85 C 47.97 7.88 48.07 4.91 48.40 1.96 Z"
     id="path32" />
  <path
     fill="#e25d5f"
     d=" M 98.87 3.06 C 103.02 1.29 107.60 2.13 111.97 1.99 C 116.36 2.13 120.97 1.24 125.12 3.07 C 122.14 3.77 119.09 4.16 116.02 4.11 C 110.30 4.00 104.48 4.53 98.87 3.06 Z"
     id="path34" />
  <path
     fill="#f66462"
     d=" M 130.27 2.16 C 136.59 1.71 142.95 1.64 149.28 2.08 C 148.64 6.10 154.27 5.70 155.09 9.18 L 154.46 9.09 C 152.60 8.07 150.72 7.03 148.59 6.66 C 149.40 7.69 150.24 8.70 151.08 9.72 C 151.43 10.13 152.14 10.96 152.49 11.38 L 151.40 11.18 C 148.75 9.90 145.98 10.56 143.44 11.76 C 143.34 10.18 143.29 8.59 143.02 7.03 C 142.37 5.90 140.76 6.43 139.80 6.78 C 137.28 8.06 135.35 10.20 133.48 12.27 C 132.52 11.61 131.55 10.95 130.59 10.29 C 130.30 9.13 130.00 7.98 129.69 6.83 C 129.87 5.27 130.06 3.71 130.27 2.16 Z"
     id="path36" />
  <path
     fill="#ffffff"
     d=" M 17.69 3.98 C 18.63 3.77 19.57 3.56 20.51 3.36 C 21.28 3.77 22.05 4.18 22.82 4.59 C 22.89 6.84 22.58 9.07 21.73 11.17 C 20.33 11.07 18.95 10.85 17.57 10.66 C 17.56 8.43 17.58 6.20 17.69 3.98 Z"
     id="path38" />
  <path
     fill="#578bf3"
     d=" M 88.19 3.78 C 90.01 3.82 91.83 3.89 93.66 3.92 C 93.81 5.19 93.97 6.47 94.12 7.74 C 94.58 8.16 95.49 8.99 95.94 9.41 C 95.93 12.37 95.93 15.33 95.94 18.29 C 93.27 18.62 90.62 19.08 87.99 19.61 C 87.99 17.74 88.00 15.88 88.00 14.01 C 86.65 14.01 85.30 14.00 83.96 14.00 C 84.01 12.74 84.07 11.49 84.13 10.23 C 85.43 10.13 86.73 10.02 88.03 9.91 C 88.09 7.87 88.13 5.83 88.19 3.78 Z"
     id="path40" />
  <path
     fill="#de494a"
     d=" M 98.07 15.98 C 98.10 11.67 97.49 7.23 98.87 3.06 C 104.48 4.53 110.30 4.00 116.02 4.11 C 119.09 4.16 122.14 3.77 125.12 3.07 C 126.49 7.27 125.89 11.72 126.02 16.05 C 125.21 16.05 123.60 16.05 122.80 16.04 C 122.64 13.64 122.44 11.07 120.91 9.08 C 116.88 3.40 107.26 3.81 103.24 9.31 C 101.68 11.21 101.30 13.71 100.93 16.06 C 100.22 16.04 98.78 16.00 98.07 15.98 Z"
     id="path42" />
  <path
     fill="#ffffff"
     d=" M 155.09 9.18 C 154.27 5.70 148.64 6.10 149.28 2.08 C 153.04 1.84 155.65 4.48 157.93 7.04 C 158.03 8.89 158.17 11.01 156.18 11.94 C 155.90 11.25 155.36 9.87 155.09 9.18 Z"
     id="path44" />
  <path
     fill="#6999fa"
     d=" M 2.14 3.99 C 4.77 3.95 7.40 3.89 10.02 3.73 C 9.43 6.43 9.81 9.15 10.91 11.66 C 10.70 11.74 10.29 11.89 10.08 11.96 C 9.07 11.13 8.08 10.26 6.99 9.54 C 5.13 8.84 3.97 10.98 2.60 11.80 C 2.34 10.68 2.08 9.56 1.84 8.43 C 1.90 6.95 2.00 5.47 2.14 3.99 Z"
     id="path46" />
  <path
     fill="#ffffff"
     d=" M 10.02 3.73 C 10.75 3.68 12.21 3.58 12.94 3.53 C 13.44 3.80 14.44 4.33 14.94 4.60 C 14.93 6.47 14.92 8.33 14.89 10.20 C 13.56 10.68 12.23 11.17 10.91 11.66 C 9.81 9.15 9.43 6.43 10.02 3.73 Z"
     id="path48" />
  <path
     fill="#6999fa"
     d=" M 14.94 4.60 C 15.86 4.39 16.77 4.18 17.69 3.98 C 17.58 6.20 17.56 8.43 17.57 10.66 C 16.90 10.54 15.56 10.32 14.89 10.20 C 14.92 8.33 14.93 6.47 14.94 4.60 Z"
     id="path50" />
  <path
     fill="#6697f9"
     d=" M 22.82 4.59 C 25.16 4.33 27.50 4.11 29.84 3.89 C 30.13 5.50 30.41 7.12 30.69 8.74 C 29.92 9.71 29.17 10.70 28.44 11.70 C 26.56 11.27 24.64 11.06 22.71 11.16 L 21.73 11.17 C 22.58 9.07 22.89 6.84 22.82 4.59 Z"
     id="path52" />
  <path
     fill="#6697f9"
     d=" M 66.27 3.86 C 70.95 3.18 75.72 3.27 80.34 4.33 C 78.37 6.10 77.88 8.67 77.94 11.20 C 73.78 11.37 69.60 11.33 65.49 10.64 C 65.78 8.38 66.03 6.12 66.27 3.86 Z"
     id="path54" />
  <path
     fill="#ffffff"
     d=" M 80.34 4.33 C 82.92 3.84 85.56 3.72 88.19 3.78 C 88.13 5.83 88.09 7.87 88.03 9.91 C 86.73 10.02 85.43 10.13 84.13 10.23 C 84.07 11.49 84.01 12.74 83.96 14.00 C 85.30 14.00 86.65 14.01 88.00 14.01 C 88.00 15.88 87.99 17.74 87.99 19.61 C 86.66 19.85 85.33 20.06 84.00 20.26 C 84.00 21.83 84.00 23.41 84.00 24.98 C 84.00 27.34 83.97 29.69 83.94 32.05 C 81.92 31.71 79.94 31.17 78.00 30.54 C 78.03 28.35 78.07 26.16 78.06 23.97 C 78.06 22.66 78.06 21.35 78.06 20.03 C 76.74 20.02 75.42 20.02 74.10 20.01 L 74.05 19.15 C 73.99 17.43 73.98 15.70 73.96 13.98 C 75.27 13.98 76.57 13.98 77.88 13.98 C 77.89 13.28 77.92 11.90 77.94 11.20 C 77.88 8.67 78.37 6.10 80.34 4.33 Z"
     id="path56" />
  <path
     fill="#ffffff"
     d=" M 103.24 9.31 C 107.26 3.81 116.88 3.40 120.91 9.08 C 122.44 11.07 122.64 13.64 122.80 16.04 C 122.15 19.80 120.59 24.10 116.69 25.54 C 114.42 26.45 112.10 25.47 110.00 24.58 C 109.56 26.29 109.11 28.00 108.57 29.67 C 108.35 30.27 107.90 31.47 107.68 32.07 C 107.09 32.06 105.91 32.05 105.32 32.05 C 105.38 31.51 105.48 30.44 105.53 29.90 C 106.17 24.90 107.79 20.03 107.54 14.93 C 107.31 12.54 109.97 10.41 112.18 11.79 C 113.13 14.56 111.67 17.30 111.37 20.05 C 110.74 21.88 112.94 22.69 113.88 23.82 C 118.05 21.19 119.83 15.63 117.96 11.09 C 115.37 6.46 107.95 7.16 105.50 11.59 C 103.19 14.93 105.62 18.85 105.38 22.50 C 102.90 21.17 101.29 18.85 100.93 16.06 C 101.30 13.71 101.68 11.21 103.24 9.31 Z"
     id="path58" />
  <path
     fill="#ec4e4b"
     d=" M 128.16 5.43 C 128.54 5.78 129.31 6.48 129.69 6.83 C 130.00 7.98 130.30 9.13 130.59 10.29 C 131.55 10.95 132.52 11.61 133.48 12.27 C 132.11 14.24 131.06 16.42 130.35 18.71 C 127.28 14.94 128.11 9.92 128.16 5.43 Z"
     id="path60" />
  <path
     fill="#ffffff"
     d=" M 139.80 6.78 C 140.76 6.43 142.37 5.90 143.02 7.03 C 143.29 8.59 143.34 10.18 143.44 11.76 C 145.98 10.56 148.75 9.90 151.40 11.18 C 151.22 11.92 150.86 13.40 150.68 14.14 C 152.52 14.85 154.35 15.59 156.08 16.55 C 155.94 18.68 155.44 20.80 154.33 22.66 C 148.27 28.76 136.62 30.54 130.61 23.50 C 130.53 21.90 130.41 20.31 130.35 18.71 C 131.06 16.42 132.11 14.24 133.48 12.27 C 135.35 10.20 137.28 8.06 139.80 6.78 Z"
     id="path62" />
  <path
     fill="#ffffff"
     d=" M 148.59 6.66 C 150.72 7.03 152.60 8.07 154.46 9.09 C 154.16 9.70 153.55 10.91 153.24 11.51 C 153.05 11.48 152.68 11.41 152.49 11.38 C 152.14 10.96 151.43 10.13 151.08 9.72 C 150.24 8.70 149.40 7.69 148.59 6.66 Z"
     id="path64" />
  <path
     fill="#ee4e4c"
     d=" M 157.93 7.04 C 158.44 7.11 159.48 7.23 160.00 7.30 L 160.00 14.25 C 158.71 15.05 157.39 15.79 156.08 16.55 C 154.35 15.59 152.52 14.85 150.68 14.14 C 150.86 13.40 151.22 11.92 151.40 11.18 L 152.49 11.38 C 152.68 11.41 153.05 11.48 153.24 11.51 C 153.55 10.91 154.16 9.70 154.46 9.09 L 155.09 9.18 C 155.36 9.87 155.90 11.25 156.18 11.94 C 158.17 11.01 158.03 8.89 157.93 7.04 Z"
     id="path66" />
  <path
     fill="#4e80e1"
     d=" M 0.00 7.70 C 0.46 7.89 1.38 8.25 1.84 8.43 C 2.08 9.56 2.34 10.68 2.60 11.80 C 3.23 13.71 3.52 16.65 6.07 16.81 C 8.80 17.14 9.33 13.85 10.08 11.96 C 10.29 11.89 10.70 11.74 10.91 11.66 C 12.23 11.17 13.56 10.68 14.89 10.20 C 15.56 10.32 16.90 10.54 17.57 10.66 C 18.95 10.85 20.33 11.07 21.73 11.17 L 22.71 11.16 C 22.08 13.62 21.46 17.75 24.98 18.13 C 28.69 18.63 28.74 14.23 28.44 11.70 C 29.17 10.70 29.92 9.71 30.69 8.74 C 30.99 8.36 31.58 7.62 31.88 7.25 C 31.90 10.19 32.00 13.14 32.03 16.08 C 32.04 16.81 32.05 18.27 32.05 19.00 C 29.85 19.71 27.66 20.43 25.48 21.20 C 22.51 19.33 20.11 16.80 17.88 14.13 C 16.83 12.49 14.31 12.70 13.20 14.18 C 10.98 16.52 8.72 18.83 6.15 20.79 C 4.10 20.19 2.03 19.62 0.00 18.94 L 0.00 7.70 Z"
     id="path68" />
  <path
     fill="#db4343"
     d=" M 105.50 11.59 C 107.95 7.16 115.37 6.46 117.96 11.09 C 119.83 15.63 118.05 21.19 113.88 23.82 C 112.94 22.69 110.74 21.88 111.37 20.05 C 111.67 17.30 113.13 14.56 112.18 11.79 C 109.97 10.41 107.31 12.54 107.54 14.93 C 107.79 20.03 106.17 24.90 105.53 29.90 C 103.12 29.83 100.70 29.76 98.29 29.69 C 98.07 25.12 98.05 20.55 98.07 15.98 C 98.78 16.00 100.22 16.04 100.93 16.06 C 101.29 18.85 102.90 21.17 105.38 22.50 C 105.62 18.85 103.19 14.93 105.50 11.59 Z"
     id="path70" />
  <path
     fill="#ffffff"
     d=" M 2.60 11.80 C 3.97 10.98 5.13 8.84 6.99 9.54 C 8.08 10.26 9.07 11.13 10.08 11.96 C 9.33 13.85 8.80 17.14 6.07 16.81 C 3.52 16.65 3.23 13.71 2.60 11.80 Z"
     id="path72" />
  <path
     fill="#ffffff"
     d=" M 22.71 11.16 C 24.64 11.06 26.56 11.27 28.44 11.70 C 28.74 14.23 28.69 18.63 24.98 18.13 C 21.46 17.75 22.08 13.62 22.71 11.16 Z"
     id="path74" />
  <path
     fill="#2f82ff"
     d=" M 47.97 10.85 C 52.79 10.82 57.61 10.83 62.43 10.80 C 62.83 12.55 63.37 14.26 63.80 16.01 C 58.51 16.00 53.23 15.98 47.95 16.03 C 47.96 14.30 47.96 12.58 47.97 10.85 Z"
     id="path76" />
  <path
     fill="#ffffff"
     d=" M 13.20 14.18 C 14.31 12.70 16.83 12.49 17.88 14.13 C 20.11 16.80 22.51 19.33 25.48 21.20 C 28.32 23.56 25.71 28.83 22.11 28.07 C 18.07 27.48 14.01 27.49 9.96 28.04 C 6.19 28.68 3.11 23.50 6.15 20.79 C 8.72 18.83 10.98 16.52 13.20 14.18 Z"
     id="path78" />
  <path
     fill="#e53935"
     d=" M 140.25 15.23 C 143.49 14.37 147.26 14.91 149.87 17.10 C 151.74 18.80 151.08 21.86 149.22 23.30 C 145.76 26.00 140.86 26.53 136.75 25.17 C 134.68 24.49 132.72 22.37 133.46 20.05 C 134.46 17.20 137.54 15.92 140.25 15.23 Z"
     id="path80" />
  <path
     fill="#d93f3b"
     d=" M 156.08 16.55 C 157.39 15.79 158.71 15.05 160.00 14.25 L 160.00 24.06 C 159.66 23.97 158.99 23.77 158.65 23.68 C 157.21 23.31 155.77 22.99 154.33 22.66 C 155.44 20.80 155.94 18.68 156.08 16.55 Z"
     id="path82" />
  <path
     fill="#424242"
     d=" M 32.03 16.08 C 32.56 16.08 33.60 16.08 34.12 16.09 C 38.73 16.09 43.34 16.12 47.95 16.03 C 47.96 21.31 48.01 26.60 48.07 31.89 C 43.64 32.07 39.21 32.06 34.77 31.99 C 33.81 31.16 32.90 30.28 32.05 29.34 C 31.95 25.89 32.06 22.45 32.05 19.00 C 32.05 18.27 32.04 16.81 32.03 16.08 Z"
     id="path84" />
  <path
     fill="#ebebeb"
     d=" M 47.95 16.03 C 53.23 15.98 58.51 16.00 63.80 16.01 C 63.83 16.53 63.91 17.58 63.95 18.10 C 63.99 20.08 63.95 22.06 63.96 24.05 C 63.98 25.87 64.02 27.70 64.17 29.52 C 63.39 30.49 62.62 31.46 61.84 32.43 C 57.34 31.24 52.66 31.58 48.07 31.89 C 48.01 26.60 47.96 21.31 47.95 16.03 Z"
     id="path86" />
  <path
     fill="#d93d3d"
     d=" M 122.80 16.04 C 123.60 16.05 125.21 16.05 126.02 16.05 C 126.15 20.64 126.14 25.24 125.81 29.82 C 120.06 30.05 114.31 29.97 108.57 29.67 C 109.11 28.00 109.56 26.29 110.00 24.58 C 112.10 25.47 114.42 26.45 116.69 25.54 C 120.59 24.10 122.15 19.80 122.80 16.04 Z"
     id="path88" />
  <path
     fill="#356fe5"
     d=" M 12.68 19.72 C 12.53 18.16 13.25 17.14 14.78 16.77 C 14.98 19.91 15.08 23.06 15.14 26.21 C 14.25 25.97 13.35 25.73 12.45 25.49 C 10.52 26.34 7.86 25.51 7.98 23.04 C 7.56 20.34 10.63 19.65 12.68 19.72 Z"
     id="path90" />
  <path
     fill="#ffffff"
     d=" M 140.20 17.19 C 142.26 15.91 145.77 17.20 145.45 19.96 C 145.73 23.57 140.21 25.70 138.10 22.77 C 136.59 20.77 138.33 18.19 140.20 17.19 Z"
     id="path92" />
  <path
     fill="#3872e6"
     d=" M 63.95 18.10 C 67.31 18.49 70.69 18.74 74.05 19.15 L 74.10 20.01 C 75.42 20.02 76.74 20.02 78.06 20.03 C 78.06 21.35 78.06 22.66 78.06 23.97 C 73.36 24.12 68.66 24.14 63.96 24.05 C 63.95 22.06 63.99 20.08 63.95 18.10 Z"
     id="path94" />
  <path
     fill="#2c64dd"
     d=" M 0.00 18.94 C 2.03 19.62 4.10 20.19 6.15 20.79 C 3.11 23.50 6.19 28.68 9.96 28.04 C 14.01 27.49 18.07 27.48 22.11 28.07 C 25.71 28.83 28.32 23.56 25.48 21.20 C 27.66 20.43 29.85 19.71 32.05 19.00 C 32.06 22.45 31.95 25.89 32.05 29.34 C 31.11 30.23 30.18 31.13 29.24 32.02 C 20.41 31.97 11.56 31.87 2.73 32.08 C 1.80 31.14 0.88 30.19 0.00 29.20 L 0.00 18.94 Z"
     id="path96" />
  <path
     fill="#356fe5"
     d=" M 87.99 19.61 C 90.62 19.08 93.27 18.62 95.94 18.29 C 95.94 20.56 95.93 22.83 95.95 25.10 C 91.97 25.04 87.99 25.00 84.00 24.98 C 84.00 23.41 84.00 21.83 84.00 20.26 C 85.33 20.06 86.66 19.85 87.99 19.61 Z"
     id="path98" />
  <path
     fill="#4379e6"
     d=" M 15.72 20.20 C 16.27 20.17 17.37 20.11 17.92 20.08 C 17.98 21.39 18.05 22.70 18.11 24.01 C 18.56 24.00 19.46 23.98 19.92 23.96 C 19.96 22.68 20.01 21.41 20.05 20.13 C 20.54 20.13 21.50 20.14 21.98 20.14 C 22.00 22.09 22.01 24.04 22.02 25.98 C 20.26 25.95 18.51 25.95 16.76 25.95 C 16.16 24.09 15.88 22.15 15.72 20.20 Z"
     id="path100" />
  <path
     fill="#e53935"
     d=" M 140.19 19.99 C 142.01 19.30 142.54 22.29 140.79 22.62 C 138.94 23.31 138.39 20.34 140.19 19.99 Z"
     id="path102" />
  <path
     fill="#ffffff"
     d=" M 10.06 22.10 C 11.06 20.65 13.59 22.28 12.45 23.73 C 11.45 25.20 8.88 23.56 10.06 22.10 Z"
     id="path104" />
  <path
     fill="#de2622"
     d=" M 154.33 22.66 C 155.77 22.99 157.21 23.31 158.65 23.68 C 157.96 25.65 158.39 28.44 156.75 29.88 C 152.25 30.94 147.58 30.22 143.01 30.41 C 139.08 30.31 135.02 30.92 131.20 29.80 C 128.85 28.59 130.81 25.55 130.61 23.50 C 136.62 30.54 148.27 28.76 154.33 22.66 Z"
     id="path106" />
  <path
     fill="#2964de"
     d=" M 63.96 24.05 C 68.66 24.14 73.36 24.12 78.06 23.97 C 78.07 26.16 78.03 28.35 78.00 30.54 C 77.99 30.91 77.98 31.66 77.97 32.03 C 74.16 32.04 70.35 32.15 66.55 31.86 C 65.73 31.11 64.93 30.33 64.17 29.52 C 64.02 27.70 63.98 25.87 63.96 24.05 Z"
     id="path108" />
  <path
     fill="#2664de"
     d=" M 84.00 24.98 C 87.99 25.00 91.97 25.04 95.95 25.10 C 95.97 26.51 96.01 27.93 96.06 29.35 C 93.19 33.18 88.06 31.91 83.94 32.05 C 83.97 29.69 84.00 27.34 84.00 24.98 Z"
     id="path110" />
  <path
     fill="#eaeaea"
     d=" M 96.06 29.35 C 96.99 30.24 97.92 31.13 98.86 32.02 C 97.91 33.09 96.95 34.13 96.09 35.27 C 95.90 39.35 95.96 43.44 96.04 47.53 C 96.03 51.71 95.70 55.90 96.04 60.08 C 96.20 61.78 97.74 62.86 98.69 64.13 C 97.79 64.97 96.88 65.79 95.97 66.62 C 93.49 62.96 88.76 64.01 85.00 63.87 C 79.34 64.07 73.66 63.59 68.02 64.06 C 66.30 64.15 65.21 65.65 63.95 66.61 C 63.13 65.83 62.31 65.06 61.47 64.30 C 63.26 62.25 64.44 59.77 64.27 56.99 C 64.16 52.52 63.81 48.05 64.00 43.58 C 64.25 40.45 64.24 37.28 63.63 34.19 C 64.60 33.41 65.58 32.64 66.55 31.86 C 70.35 32.15 74.16 32.04 77.97 32.03 C 77.98 31.66 77.99 30.91 78.00 30.54 C 79.94 31.17 81.92 31.71 83.94 32.05 C 88.06 31.91 93.19 33.18 96.06 29.35 Z"
     id="path114" />
  <path
     fill="#67b17c"
     d=" M 2.73 32.08 C 11.56 31.87 20.41 31.97 29.24 32.02 C 30.14 32.79 31.03 33.56 31.92 34.33 C 32.01 37.49 32.06 40.65 32.03 43.80 C 32.03 44.39 32.01 45.56 32.00 46.14 C 29.90 47.63 27.86 49.22 25.93 50.92 C 26.00 47.55 26.00 44.18 26.01 40.81 C 19.34 40.80 12.68 40.80 6.01 40.81 C 6.00 42.52 5.99 44.23 5.98 45.94 C 3.94 43.50 1.86 41.10 0.00 38.53 L 0.00 34.22 C 0.91 33.51 1.82 32.79 2.73 32.08 Z"
     id="path122" />
  <path
     fill="#c5d7e6"
     d=" M 31.92 34.33 C 32.87 33.55 33.82 32.77 34.77 31.99 C 39.21 32.06 43.64 32.07 48.07 31.89 C 52.66 31.58 57.34 31.24 61.84 32.43 C 62.29 32.87 63.18 33.75 63.63 34.19 C 64.24 37.28 64.25 40.45 64.00 43.58 C 63.56 43.89 62.68 44.50 62.23 44.80 C 62.18 42.42 62.03 40.04 61.83 37.67 C 61.78 37.12 61.68 36.03 61.63 35.48 C 61.59 35.12 61.52 34.40 61.48 34.05 C 52.49 33.71 43.48 33.68 34.49 34.05 C 34.46 34.41 34.40 35.12 34.37 35.48 C 34.32 36.03 34.22 37.12 34.17 37.67 C 33.97 39.99 33.75 42.31 33.57 44.63 C 33.18 44.43 32.42 44.01 32.03 43.80 C 32.06 40.65 32.01 37.49 31.92 34.33 Z"
     id="path124" />
  <path
     fill="#f06d43"
     d=" M 98.86 32.02 C 101.01 32.05 103.17 32.05 105.32 32.05 C 105.91 32.05 107.09 32.06 107.68 32.07 C 113.50 32.15 119.35 32.61 125.14 31.90 C 126.02 33.03 127.53 33.90 127.78 35.39 C 127.62 36.61 127.45 37.83 127.28 39.05 C 125.57 39.01 123.86 38.96 122.15 38.92 C 118.93 37.50 115.37 37.91 111.96 37.86 C 108.58 37.91 105.05 37.50 101.88 38.92 C 100.19 38.94 98.50 38.94 96.81 38.94 C 96.59 37.72 96.35 36.49 96.09 35.27 C 96.95 34.13 97.91 33.09 98.86 32.02 Z"
     id="path126" />
  <path
     fill="#f6965f"
     d=" M 99.52 33.90 C 102.38 32.28 105.84 33.28 108.97 33.01 C 114.17 33.28 119.64 31.97 124.64 33.86 C 116.29 34.34 107.88 34.30 99.52 33.90 Z"
     id="path128" />
  <path
     fill="#d5ebfd"
     d=" M 34.49 34.05 C 43.48 33.68 52.49 33.71 61.48 34.05 C 61.52 34.40 61.59 35.12 61.63 35.48 C 57.11 40.02 52.61 44.57 48.01 49.03 C 43.38 44.59 38.90 40.01 34.37 35.48 C 34.40 35.12 34.46 34.41 34.49 34.05 Z"
     id="path130" />
  <path
     fill="#fbfbfb"
     d=" M 66.33 35.15 C 67.39 33.69 69.44 34.23 70.99 34.02 C 78.53 34.19 86.08 33.70 93.60 34.41 C 94.00 39.21 93.74 44.02 93.61 48.82 C 93.02 48.79 91.85 48.74 91.26 48.71 C 90.96 47.33 90.74 45.94 90.28 44.61 C 88.73 41.29 83.27 41.32 81.70 44.61 C 81.22 46.01 81.03 47.49 80.73 48.94 C 80.36 48.76 79.60 48.40 79.22 48.23 C 78.99 45.31 77.41 41.83 73.94 42.11 C 70.31 41.88 69.17 45.65 68.59 48.49 C 68.04 48.66 66.92 48.99 66.37 49.16 C 66.37 44.50 65.85 39.81 66.33 35.15 Z"
     id="path132" />
  <path
     fill="#ffffff"
     d=" M 3.55 35.71 C 11.77 35.75 19.98 35.75 28.20 35.71 C 28.14 36.39 28.01 37.74 27.95 38.42 C 20.06 38.32 12.16 38.60 4.28 38.31 C 4.10 37.66 3.74 36.36 3.55 35.71 Z"
     id="path134" />
  <path
     fill="#7eb1d8"
     d=" M 34.17 37.67 C 34.22 37.12 34.32 36.03 34.37 35.48 C 38.90 40.01 43.38 44.59 48.01 49.03 C 52.61 44.57 57.11 40.02 61.63 35.48 C 61.68 36.03 61.78 37.12 61.83 37.67 C 58.61 41.04 55.55 44.55 52.39 47.98 C 50.95 49.48 49.46 50.93 47.99 52.40 C 46.50 50.91 45.00 49.43 43.55 47.91 C 40.41 44.51 37.37 41.01 34.17 37.67 Z"
     id="path136" />
  <path
     fill="#cc4e27"
     d=" M 96.09 35.27 C 96.35 36.49 96.59 37.72 96.81 38.94 C 97.09 41.22 97.22 43.50 97.35 45.79 C 98.93 45.94 100.51 46.09 102.10 46.25 C 102.08 48.45 102.07 50.66 102.06 52.86 C 100.31 52.86 98.56 52.85 96.82 52.85 C 96.62 51.07 96.30 49.30 96.04 47.53 C 95.96 43.44 95.90 39.35 96.09 35.27 Z"
     id="path138" />
  <path
     fill="#c64923"
     d=" M 127.28 39.05 C 127.45 37.83 127.62 36.61 127.78 35.39 C 128.09 39.46 128.00 43.55 127.93 47.63 C 127.37 50.97 126.95 54.33 126.74 57.71 C 120.15 57.45 113.55 57.46 106.96 57.70 L 106.96 57.00 C 111.95 57.00 116.95 57.00 121.94 57.00 C 121.95 53.47 121.93 49.95 121.90 46.42 C 123.48 46.27 125.06 46.11 126.64 45.96 C 126.81 43.65 126.98 41.34 127.28 39.05 Z"
     id="path140" />
  <path
     fill="#c4e2fb"
     d=" M 34.17 37.67 C 37.37 41.01 40.41 44.51 43.55 47.91 C 40.76 48.17 37.93 48.70 35.13 48.23 C 34.17 47.29 34.08 45.82 33.57 44.63 C 33.75 42.31 33.97 39.99 34.17 37.67 Z"
     id="path142" />
  <path
     fill="#c4e2fb"
     d=" M 52.39 47.98 C 55.55 44.55 58.61 41.04 61.83 37.67 C 62.03 40.04 62.18 42.42 62.23 44.80 C 62.05 45.95 61.87 47.10 61.69 48.25 C 58.59 48.36 55.48 48.28 52.39 47.98 Z"
     id="path144" />
  <path
     fill="#bb5232"
     d=" M 101.88 38.92 C 105.05 37.50 108.58 37.91 111.96 37.86 C 115.37 37.91 118.93 37.50 122.15 38.92 C 115.41 39.37 108.62 39.36 101.88 38.92 Z"
     id="path146" />
  <path
     fill="#589d66"
     d=" M 0.00 38.53 C 1.86 41.10 3.94 43.50 5.98 45.94 C 5.97 47.59 5.98 49.25 5.98 50.90 C 3.94 50.36 1.95 49.66 0.00 48.86 L 0.00 38.53 Z"
     id="path148" />
  <path
     fill="#e16037"
     d=" M 96.81 38.94 C 98.50 38.94 100.19 38.94 101.88 38.92 C 102.03 41.36 102.10 43.80 102.10 46.25 C 100.51 46.09 98.93 45.94 97.35 45.79 C 97.22 43.50 97.09 41.22 96.81 38.94 Z"
     id="path150" />
  <path
     fill="#ffffff"
     d=" M 101.88 38.92 C 108.62 39.36 115.41 39.37 122.15 38.92 C 121.97 41.41 121.89 43.92 121.90 46.42 C 121.93 49.95 121.95 53.47 121.94 57.00 C 116.95 57.00 111.95 57.00 106.96 57.00 L 106.96 57.70 C 106.96 59.60 106.96 61.51 106.97 63.41 C 105.36 63.53 103.74 63.63 102.13 63.73 L 102.06 62.97 C 102.00 59.60 102.06 56.23 102.06 52.86 C 102.07 50.66 102.08 48.45 102.10 46.25 C 102.10 43.80 102.03 41.36 101.88 38.92 Z"
     id="path152" />
  <path
     fill="#e16037"
     d=" M 122.15 38.92 C 123.86 38.96 125.57 39.01 127.28 39.05 C 126.98 41.34 126.81 43.65 126.64 45.96 C 125.06 46.11 123.48 46.27 121.90 46.42 C 121.89 43.92 121.97 41.41 122.15 38.92 Z"
     id="path154" />
  <path
     fill="#ffffff"
     d=" M 6.01 40.81 C 12.68 40.80 19.34 40.80 26.01 40.81 C 26.00 44.18 26.00 47.55 25.93 50.92 C 19.28 51.09 12.63 51.14 5.98 50.90 C 5.98 49.25 5.97 47.59 5.98 45.94 C 5.99 44.23 6.00 42.52 6.01 40.81 Z"
     id="path156" />
  <path
     fill="#5781ff"
     d=" M 68.59 48.49 C 69.17 45.65 70.31 41.88 73.94 42.11 C 77.41 41.83 78.99 45.31 79.22 48.23 C 78.07 50.06 76.39 52.08 74.00 52.01 C 71.60 52.11 70.19 49.88 68.59 48.49 Z"
     id="path158" />
  <path
     fill="#ff54d4"
     d=" M 81.70 44.61 C 83.27 41.32 88.73 41.29 90.28 44.61 C 90.74 45.94 90.96 47.33 91.26 48.71 C 89.69 50.04 88.26 52.13 85.94 52.00 C 83.76 52.02 82.38 50.06 80.73 48.94 C 81.03 47.49 81.22 46.01 81.70 44.61 Z"
     id="path160" />
  <path
     fill="#5ba369"
     d=" M 8.16 43.41 C 13.37 43.43 18.58 43.43 23.78 43.41 C 23.81 45.01 23.84 46.60 23.87 48.20 C 18.60 48.22 13.34 48.22 8.07 48.20 C 8.10 46.60 8.13 45.00 8.16 43.41 Z"
     id="path162" />
  <path
     fill="#a3d0f6"
     d=" M 32.03 43.80 C 32.42 44.01 33.18 44.43 33.57 44.63 C 34.08 45.82 34.17 47.29 35.13 48.23 C 37.93 48.70 40.76 48.17 43.55 47.91 C 45.00 49.43 46.50 50.91 47.99 52.40 C 49.46 50.93 50.95 49.48 52.39 47.98 C 55.48 48.28 58.59 48.36 61.69 48.25 C 61.87 47.10 62.05 45.95 62.23 44.80 C 62.68 44.50 63.56 43.89 64.00 43.58 C 63.81 48.05 64.16 52.52 64.27 56.99 C 58.88 59.64 52.78 58.46 47.01 58.61 C 42.01 58.54 36.75 59.42 32.07 57.20 L 32.07 55.82 C 32.06 52.60 31.99 49.37 32.00 46.14 C 32.01 45.56 32.03 44.39 32.03 43.80 Z"
     id="path164" />
  <path
     fill="#cf502a"
     d=" M 106.97 44.06 C 110.32 44.06 113.68 44.06 117.03 44.06 C 117.06 46.76 117.06 49.46 117.06 52.16 C 113.68 52.20 110.30 52.20 106.92 52.15 C 106.93 49.46 106.94 46.76 106.97 44.06 Z"
     id="path166" />
  <path
     fill="#498b51"
     d=" M 25.93 50.92 C 27.86 49.22 29.90 47.63 32.00 46.14 C 31.99 49.37 32.06 52.60 32.07 55.82 C 29.05 55.51 26.02 55.21 22.99 54.92 C 23.46 53.91 23.93 52.90 24.40 51.89 C 20.57 50.52 20.13 55.04 18.69 57.37 C 16.72 57.41 14.74 57.43 12.77 57.45 C 12.12 55.62 11.45 53.78 10.77 51.95 C 9.82 52.29 8.86 52.63 7.91 52.98 C 8.35 53.91 8.79 54.84 9.23 55.77 C 6.13 55.86 3.05 56.30 0.00 56.83 L 0.00 48.86 C 1.95 49.66 3.94 50.36 5.98 50.90 C 12.63 51.14 19.28 51.09 25.93 50.92 Z"
     id="path168" />
  <path
     fill="#923a20"
     d=" M 96.04 47.53 C 96.30 49.30 96.62 51.07 96.82 52.85 C 97.15 55.32 96.96 57.90 97.78 60.27 C 99.12 61.31 100.64 62.07 102.06 62.97 L 102.13 63.73 C 103.74 63.63 105.36 63.53 106.97 63.41 C 112.67 62.60 118.52 63.54 124.16 62.34 C 126.44 61.96 126.63 59.56 126.74 57.71 C 126.95 54.33 127.37 50.97 127.93 47.63 C 127.94 51.77 128.20 55.91 127.94 60.04 C 127.97 61.69 126.56 62.74 125.60 63.87 C 116.64 64.39 107.65 63.57 98.69 64.13 C 97.74 62.86 96.20 61.78 96.04 60.08 C 95.70 55.90 96.03 51.71 96.04 47.53 Z"
     id="path170" />
  <path
     fill="#ffffff"
     d=" M 7.91 52.98 C 8.86 52.63 9.82 52.29 10.77 51.95 C 11.45 53.78 12.12 55.62 12.77 57.45 C 14.74 57.43 16.72 57.41 18.69 57.37 C 20.13 55.04 20.57 50.52 24.40 51.89 C 23.93 52.90 23.46 53.91 22.99 54.92 C 22.69 55.54 22.10 56.77 21.80 57.39 C 23.87 57.40 25.93 57.39 27.99 57.39 C 28.00 58.04 28.00 59.34 28.00 59.99 C 20.00 60.00 12.00 60.00 4.00 59.99 C 4.00 59.35 4.00 58.06 4.01 57.41 C 6.01 57.39 8.01 57.37 10.01 57.32 L 9.23 55.77 C 8.79 54.84 8.35 53.91 7.91 52.98 Z"
     id="path172" />
  <path
     fill="#b93e19"
     d=" M 96.82 52.85 C 98.56 52.85 100.31 52.86 102.06 52.86 C 102.06 56.23 102.00 59.60 102.06 62.97 C 100.64 62.07 99.12 61.31 97.78 60.27 C 96.96 57.90 97.15 55.32 96.82 52.85 Z"
     id="path174" />
  <path
     fill="#3e7940"
     d=" M 22.99 54.92 C 26.02 55.21 29.05 55.51 32.07 55.82 L 32.07 57.20 C 32.05 58.55 32.00 59.91 31.91 61.27 C 31.10 62.23 30.22 63.13 29.34 64.04 C 24.81 63.96 20.27 64.02 15.73 64.01 C 10.53 63.54 3.57 66.21 0.00 61.02 L 0.00 56.83 C 3.05 56.30 6.13 55.86 9.23 55.77 L 10.01 57.32 C 8.01 57.37 6.01 57.39 4.01 57.41 C 4.00 58.06 4.00 59.35 4.00 59.99 C 12.00 60.00 20.00 60.00 28.00 59.99 C 28.00 59.34 28.00 58.04 27.99 57.39 C 25.93 57.39 23.87 57.40 21.80 57.39 C 22.10 56.77 22.69 55.54 22.99 54.92 Z"
     id="path176" />
  <path
     fill="#88c4f2"
     d=" M 32.07 57.20 C 36.75 59.42 42.01 58.54 47.01 58.61 C 52.78 58.46 58.88 59.64 64.27 56.99 C 64.44 59.77 63.26 62.25 61.47 64.30 C 52.54 63.62 43.56 64.04 34.62 64.10 C 33.71 63.16 32.81 62.21 31.91 61.27 C 32.00 59.91 32.05 58.55 32.07 57.20 Z"
     id="path178" />
  <path
     fill="#ad3310"
     d=" M 106.96 57.70 C 113.55 57.46 120.15 57.45 126.74 57.71 C 126.63 59.56 126.44 61.96 124.16 62.34 C 118.52 63.54 112.67 62.60 106.97 63.41 C 106.96 61.51 106.96 59.60 106.96 57.70 Z"
     id="path180" />
  <path
     fill="#83a0cb"
     d=" M 0.00 61.02 C 3.57 66.21 10.53 63.54 15.73 64.01 C 16.14 64.35 16.96 65.03 17.36 65.37 C 15.63 65.24 13.90 65.14 12.17 65.06 C 12.43 65.81 12.94 67.32 13.19 68.08 C 10.12 68.07 7.04 68.06 3.97 68.05 C 3.97 67.37 3.96 66.00 3.96 65.31 C 3.27 65.26 1.89 65.16 1.20 65.11 C 1.23 68.74 1.24 72.37 1.25 76.00 C 0.94 75.71 0.31 75.11 0.00 74.82 L 0.00 61.02 Z"
     id="path184" />
  <path
     fill="#d74e4c"
     d=" M 15.73 64.01 C 20.27 64.02 24.81 63.96 29.34 64.04 C 30.19 64.90 31.04 65.76 31.88 66.63 C 32.01 69.31 32.14 72.00 32.16 74.69 C 32.15 75.27 32.14 76.44 32.13 77.02 C 31.24 76.49 30.35 75.98 29.42 75.51 C 29.91 72.39 30.08 69.23 30.00 66.07 C 26.12 65.75 22.23 65.73 18.36 66.13 L 17.36 65.37 C 16.96 65.03 16.14 64.35 15.73 64.01 Z"
     id="path186" />
  <path
     fill="#f16e47"
     d=" M 34.62 64.10 C 43.56 64.04 52.54 63.62 61.47 64.30 C 62.31 65.06 63.13 65.83 63.95 66.61 C 63.96 68.57 63.96 70.54 63.93 72.50 C 63.10 74.88 62.18 77.22 61.34 79.60 C 59.90 80.21 58.47 80.84 57.00 81.38 C 56.97 79.65 56.94 77.91 56.91 76.18 C 58.19 76.14 59.47 76.11 60.75 76.07 C 60.82 75.59 60.97 74.61 61.04 74.12 C 61.59 71.37 62.13 68.61 62.45 65.81 C 52.72 65.68 42.98 65.45 33.26 65.95 C 33.84 67.66 35.26 68.53 36.86 69.10 C 35.12 70.82 33.57 72.70 32.16 74.69 C 32.14 72.00 32.01 69.31 31.88 66.63 C 32.79 65.78 33.70 64.94 34.62 64.10 Z"
     id="path188" />
  <path
     fill="#e0615f"
     d=" M 63.95 66.61 C 65.21 65.65 66.30 64.15 68.02 64.06 C 73.66 63.59 79.34 64.07 85.00 63.87 C 88.76 64.01 93.49 62.96 95.97 66.62 C 96.06 69.02 96.03 71.43 96.05 73.83 C 95.74 74.09 95.11 74.60 94.79 74.85 C 94.33 72.08 93.90 69.29 93.50 66.51 C 84.49 66.45 75.48 66.47 66.47 66.47 C 66.12 69.59 65.73 72.70 65.33 75.81 C 65.01 75.51 64.37 74.90 64.05 74.59 C 64.02 74.07 63.96 73.02 63.93 72.50 C 63.96 70.54 63.96 68.57 63.95 66.61 Z"
     id="path190" />
  <path
     fill="#6abdd1"
     d=" M 95.97 66.62 C 96.88 65.79 97.79 64.97 98.69 64.13 C 107.65 63.57 116.64 64.39 125.60 63.87 C 128.31 66.13 128.15 69.66 128.03 72.86 C 127.62 72.85 126.82 72.83 126.42 72.82 C 126.20 70.57 125.95 68.31 125.71 66.06 C 121.14 65.89 116.56 65.62 111.98 65.50 C 111.55 65.50 111.12 65.50 110.68 65.51 C 106.52 65.68 102.36 65.93 98.19 66.07 C 98.08 68.74 97.97 71.42 97.86 74.09 C 97.55 74.23 96.92 74.51 96.61 74.66 L 96.05 75.04 L 96.05 73.83 C 96.03 71.43 96.06 69.02 95.97 66.62 Z"
     id="path192" />
  <path
     fill="#ffd77c"
     d=" M 110.68 65.51 C 111.12 65.50 111.55 65.50 111.98 65.50 C 112.97 68.33 114.00 71.15 115.06 73.95 C 118.88 74.01 122.70 73.99 126.51 74.07 C 124.07 77.52 120.64 80.14 118.39 83.75 C 115.16 84.17 111.89 84.11 108.64 83.97 C 111.67 81.35 114.99 79.06 117.72 76.10 C 111.66 75.82 105.39 75.63 99.64 77.87 C 98.63 76.80 97.61 75.73 96.61 74.66 C 96.92 74.51 97.55 74.23 97.86 74.09 C 101.05 73.87 104.34 74.39 107.46 73.53 C 108.93 71.04 109.72 68.23 110.68 65.51 Z"
     id="path194" />
  <path
     fill="#ffffff"
     d=" M 1.20 65.11 C 1.89 65.16 3.27 65.26 3.96 65.31 C 3.96 66.00 3.97 67.37 3.97 68.05 C 4.16 70.88 4.92 74.04 7.39 75.74 C 9.37 76.68 12.24 76.37 13.33 74.25 C 14.62 72.37 13.69 70.06 13.19 68.08 C 12.94 67.32 12.43 65.81 12.17 65.06 C 13.90 65.14 15.63 65.24 17.36 65.37 L 18.36 66.13 C 18.27 68.46 18.14 70.80 17.65 73.09 C 16.19 74.82 14.35 76.24 13.15 78.18 C 12.40 79.24 13.99 79.82 14.47 80.57 C 16.49 82.28 18.46 84.08 19.92 86.32 C 20.58 90.07 18.69 93.40 16.15 95.98 C 10.81 96.45 4.53 94.36 0.00 98.07 L 0.00 85.35 C 2.70 83.70 5.80 83.02 8.90 82.66 C 8.69 81.21 8.47 79.77 8.26 78.32 C 5.83 77.87 3.39 77.29 1.25 76.00 C 1.24 72.37 1.23 68.74 1.20 65.11 Z"
     id="path196" />
  <path
     fill="#f1504f"
     d=" M 18.36 66.13 C 22.23 65.73 26.12 65.75 30.00 66.07 C 30.08 69.23 29.91 72.39 29.42 75.51 C 25.79 73.62 21.72 72.89 17.65 73.09 C 18.14 70.80 18.27 68.46 18.36 66.13 Z"
     id="path198" />
  <path
     fill="#f38361"
     d=" M 33.26 65.95 C 42.98 65.45 52.72 65.68 62.45 65.81 C 62.13 68.61 61.59 71.37 61.04 74.12 C 59.78 73.85 58.53 73.60 57.27 73.36 C 57.00 71.22 56.34 69.18 54.75 67.64 C 54.61 69.61 54.54 71.58 54.47 73.54 C 52.53 73.62 50.59 73.69 48.66 73.82 C 48.21 74.62 47.75 75.41 47.28 76.21 C 46.80 74.24 46.20 72.32 45.56 70.40 C 46.99 69.57 48.42 68.71 49.84 67.86 C 45.52 67.86 40.85 66.97 36.86 69.10 C 35.26 68.53 33.84 67.66 33.26 65.95 Z"
     id="path200" />
  <path
     fill="#f25a57"
     d=" M 66.47 66.47 C 75.48 66.47 84.49 66.45 93.50 66.51 C 93.90 69.29 94.33 72.08 94.79 74.85 C 93.91 75.57 93.03 76.28 92.11 76.95 C 90.14 77.05 88.17 77.03 86.19 77.02 C 86.21 75.03 86.23 73.04 86.25 71.05 C 88.13 71.02 90.01 71.04 91.89 71.01 C 91.89 70.18 91.89 68.54 91.89 67.72 C 84.65 67.73 77.40 67.74 70.16 67.71 C 70.16 68.53 70.16 70.18 70.16 71.00 C 71.97 71.03 73.78 71.03 75.58 71.06 C 75.59 73.01 75.61 74.96 75.62 76.91 C 72.86 76.97 70.09 77.14 67.36 77.60 C 66.68 77.00 65.99 76.41 65.33 75.81 C 65.73 72.70 66.12 69.59 66.47 66.47 Z"
     id="path202" />
  <path
     fill="#6acde5"
     d=" M 98.19 66.07 C 102.36 65.93 106.52 65.68 110.68 65.51 C 109.72 68.23 108.93 71.04 107.46 73.53 C 104.34 74.39 101.05 73.87 97.86 74.09 C 97.97 71.42 98.08 68.74 98.19 66.07 Z"
     id="path204" />
  <path
     fill="#6acde5"
     d=" M 111.98 65.50 C 116.56 65.62 121.14 65.89 125.71 66.06 C 125.95 68.31 126.20 70.57 126.42 72.82 L 126.51 74.07 C 122.70 73.99 118.88 74.01 115.06 73.95 C 114.00 71.15 112.97 68.33 111.98 65.50 Z"
     id="path206" />
  <path
     fill="#5b81bb"
     d=" M 3.97 68.05 C 7.04 68.06 10.12 68.07 13.19 68.08 C 13.69 70.06 14.62 72.37 13.33 74.25 C 12.24 76.37 9.37 76.68 7.39 75.74 C 4.92 74.04 4.16 70.88 3.97 68.05 Z"
     id="path208" />
  <path
     fill="#ffffff"
     d=" M 36.86 69.10 C 40.85 66.97 45.52 67.86 49.84 67.86 C 48.42 68.71 46.99 69.57 45.56 70.40 C 46.20 72.32 46.80 74.24 47.28 76.21 C 46.45 77.68 45.51 79.09 44.53 80.47 C 43.94 81.27 43.36 82.07 42.78 82.87 C 44.37 84.46 46.01 86.01 47.56 87.66 C 49.01 90.52 48.10 93.63 46.23 96.03 C 45.61 96.04 44.38 96.06 43.76 96.07 C 44.34 94.75 45.34 93.54 45.39 92.04 C 44.71 89.95 42.73 88.69 41.27 87.17 C 38.98 87.74 36.72 88.39 34.52 89.23 C 33.99 91.03 33.42 92.83 32.73 94.58 C 33.25 94.91 34.29 95.58 34.81 95.92 C 33.83 96.71 32.85 97.50 31.87 98.30 C 31.00 97.53 30.13 96.76 29.25 96.00 C 31.94 94.19 32.25 90.85 32.04 87.89 C 34.29 87.05 36.61 86.43 38.93 85.83 C 40.74 85.26 40.22 81.89 38.21 82.01 C 35.47 81.92 33.45 80.28 32.15 77.98 C 32.15 77.74 32.14 77.26 32.13 77.02 C 32.14 76.44 32.15 75.27 32.16 74.69 C 33.57 72.70 35.12 70.82 36.86 69.10 Z"
     id="path210" />
  <path
     fill="#ffffff"
     d=" M 70.16 67.71 C 77.40 67.74 84.65 67.73 91.89 67.72 C 91.89 68.54 91.89 70.18 91.89 71.01 C 90.01 71.04 88.13 71.02 86.25 71.05 C 86.23 73.04 86.21 75.03 86.19 77.02 C 88.17 77.03 90.14 77.05 92.11 76.95 C 92.09 77.72 92.04 79.26 92.02 80.03 C 90.09 80.04 88.17 80.03 86.24 80.04 C 86.21 83.99 86.21 87.94 86.11 91.89 C 85.27 91.96 83.59 92.09 82.75 92.16 C 82.67 88.14 82.64 84.11 82.63 80.09 C 81.77 80.10 80.06 80.14 79.21 80.16 C 78.64 85.10 75.67 89.21 71.54 91.84 C 70.65 90.99 69.76 90.14 68.87 89.30 C 70.20 88.46 71.53 87.62 72.83 86.73 C 74.46 84.87 75.06 82.44 75.72 80.13 C 73.39 80.07 71.07 80.07 68.75 79.92 C 68.40 79.34 67.70 78.18 67.36 77.60 C 70.09 77.14 72.86 76.97 75.62 76.91 C 75.61 74.96 75.59 73.01 75.58 71.06 C 73.78 71.03 71.97 71.03 70.16 71.00 C 70.16 70.18 70.16 68.53 70.16 67.71 Z"
     id="path212" />
  <path
     fill="#ffffff"
     d=" M 54.75 67.64 C 56.34 69.18 57.00 71.22 57.27 73.36 C 58.53 73.60 59.78 73.85 61.04 74.12 C 60.97 74.61 60.82 75.59 60.75 76.07 C 59.47 76.11 58.19 76.14 56.91 76.18 C 56.94 77.91 56.97 79.65 57.00 81.38 C 56.16 81.44 55.32 81.48 54.47 81.46 C 54.49 79.74 54.50 78.02 54.51 76.30 C 52.30 76.02 49.23 76.80 48.66 73.82 C 50.59 73.69 52.53 73.62 54.47 73.54 C 54.54 71.58 54.61 69.61 54.75 67.64 Z"
     id="path214" />
  <path
     fill="#f27550"
     d=" M 38.13 70.19 C 41.86 69.40 43.14 74.14 43.29 76.96 C 43.98 79.78 40.23 82.16 38.21 79.88 C 35.75 77.58 34.36 71.75 38.13 70.19 Z"
     id="path216" />
  <path
     fill="#f25a57"
     d=" M 79.15 71.01 C 80.33 71.02 81.51 71.04 82.70 71.05 C 82.71 73.03 82.73 75.01 82.75 76.99 C 81.52 77.00 80.29 77.00 79.07 77.01 C 79.09 75.01 79.12 73.01 79.15 71.01 Z"
     id="path218" />
  <path
     fill="#2fae58"
     d=" M 13.15 78.18 C 14.35 76.24 16.19 74.82 17.65 73.09 C 21.72 72.89 25.79 73.62 29.42 75.51 C 30.35 75.98 31.24 76.49 32.13 77.02 C 32.14 77.26 32.15 77.74 32.15 77.98 C 27.01 81.65 20.29 79.18 14.47 80.57 C 13.99 79.82 12.40 79.24 13.15 78.18 Z"
     id="path220" />
  <path
     fill="#ef5c2e"
     d=" M 61.34 79.60 C 62.18 77.22 63.10 74.88 63.93 72.50 C 63.96 73.02 64.02 74.07 64.05 74.59 C 64.13 78.12 63.93 81.64 63.90 85.17 C 58.96 88.17 53.02 86.97 47.56 87.66 C 46.01 86.01 44.37 84.46 42.78 82.87 C 43.36 82.07 43.94 81.27 44.53 80.47 C 47.84 80.84 51.15 81.25 54.47 81.46 C 55.32 81.48 56.16 81.44 57.00 81.38 C 58.47 80.84 59.90 80.21 61.34 79.60 Z"
     id="path222" />
  <path
     fill="#41b0cb"
     d=" M 126.42 72.82 C 126.82 72.83 127.62 72.85 128.03 72.86 C 127.97 75.88 127.96 78.90 127.99 81.93 C 127.30 81.86 125.93 81.74 125.24 81.67 C 122.92 82.24 120.71 83.20 118.39 83.75 C 120.64 80.14 124.07 77.52 126.51 74.07 L 126.42 72.82 Z"
     id="path224" />
  <path
     fill="#f16c43"
     d=" M 47.28 76.21 C 47.75 75.41 48.21 74.62 48.66 73.82 C 49.23 76.80 52.30 76.02 54.51 76.30 C 54.50 78.02 54.49 79.74 54.47 81.46 C 51.15 81.25 47.84 80.84 44.53 80.47 C 45.51 79.09 46.45 77.68 47.28 76.21 Z"
     id="path226" />
  <path
     fill="#e63f3b"
     d=" M 94.79 74.85 C 95.11 74.60 95.74 74.09 96.05 73.83 L 96.05 75.04 C 96.05 79.22 96.07 83.39 96.01 87.57 L 95.99 88.81 C 93.51 87.66 90.90 86.12 88.05 86.81 C 87.23 88.43 86.69 90.17 86.11 91.89 C 86.21 87.94 86.21 83.99 86.24 80.04 C 88.17 80.03 90.09 80.04 92.02 80.03 C 92.04 79.26 92.09 77.72 92.11 76.95 C 93.03 76.28 93.91 75.57 94.79 74.85 Z"
     id="path228" />
  <path
     fill="#456eb1"
     d=" M 0.00 74.82 C 0.31 75.11 0.94 75.71 1.25 76.00 C 3.39 77.29 5.83 77.87 8.26 78.32 C 8.47 79.77 8.69 81.21 8.90 82.66 C 5.80 83.02 2.70 83.70 0.00 85.35 L 0.00 74.82 Z"
     id="path230" />
  <path
     fill="#e63f3b"
     d=" M 64.05 74.59 C 64.37 74.90 65.01 75.51 65.33 75.81 C 65.99 76.41 66.68 77.00 67.36 77.60 C 67.70 78.18 68.40 79.34 68.75 79.92 C 71.07 80.07 73.39 80.07 75.72 80.13 C 75.06 82.44 74.46 84.87 72.83 86.73 C 69.86 86.36 66.85 86.38 63.88 86.80 C 63.89 86.39 63.90 85.58 63.90 85.17 C 63.93 81.64 64.13 78.12 64.05 74.59 Z"
     id="path232" />
  <path
     fill="#2fb0d3"
     d=" M 96.05 75.04 L 96.61 74.66 C 97.61 75.73 98.63 76.80 99.64 77.87 L 97.72 78.53 C 98.53 78.46 99.33 78.39 100.14 78.31 C 101.62 79.82 103.10 81.33 104.57 82.86 C 104.01 84.40 103.42 85.93 102.88 87.48 C 100.59 87.44 98.30 87.47 96.01 87.57 C 96.07 83.39 96.05 79.22 96.05 75.04 Z"
     id="path234" />
  <path
     fill="#eb4511"
     d=" M 99.64 77.87 C 105.39 75.63 111.66 75.82 117.72 76.10 C 114.99 79.06 111.67 81.35 108.64 83.97 C 111.89 84.11 115.16 84.17 118.39 83.75 C 120.71 83.20 122.92 82.24 125.24 81.67 C 123.55 83.23 121.68 84.62 119.48 85.36 C 114.86 86.12 110.16 85.99 105.50 85.78 C 107.07 82.13 110.17 79.65 113.70 78.01 C 109.18 77.88 104.64 77.77 100.14 78.31 C 99.33 78.39 98.53 78.46 97.72 78.53 L 99.64 77.87 Z"
     id="path236" />
  <path
     fill="#ffd77c"
     d=" M 100.14 78.31 C 104.64 77.77 109.18 77.88 113.70 78.01 C 110.17 79.65 107.07 82.13 105.50 85.78 C 110.16 85.99 114.86 86.12 119.48 85.36 C 119.77 86.27 120.06 87.19 120.35 88.11 C 120.90 89.87 121.44 91.63 121.96 93.39 C 118.33 91.75 115.10 89.17 111.24 88.08 C 107.63 89.49 104.42 91.72 100.93 93.38 C 101.55 91.40 102.19 89.44 102.88 87.48 C 103.42 85.93 104.01 84.40 104.57 82.86 C 103.10 81.33 101.62 79.82 100.14 78.31 Z"
     id="path238" />
  <path
     fill="#21a74c"
     d=" M 14.47 80.57 C 20.29 79.18 27.01 81.65 32.15 77.98 C 31.96 81.28 31.92 84.59 32.04 87.89 C 28.42 85.44 24.04 85.72 19.92 86.32 C 18.46 84.08 16.49 82.28 14.47 80.57 Z"
     id="path240" />
  <path
     fill="#ef592a"
     d=" M 32.15 77.98 C 33.45 80.28 35.47 81.92 38.21 82.01 C 40.22 81.89 40.74 85.26 38.93 85.83 C 36.61 86.43 34.29 87.05 32.04 87.89 C 31.92 84.59 31.96 81.28 32.15 77.98 Z"
     id="path242" />
  <path
     fill="#dd2824"
     d=" M 79.21 80.16 C 80.06 80.14 81.77 80.10 82.63 80.09 C 82.64 84.11 82.67 88.14 82.75 92.16 C 83.59 92.09 85.27 91.96 86.11 91.89 C 86.69 90.17 87.23 88.43 88.05 86.81 C 90.90 86.12 93.51 87.66 95.99 88.81 C 95.98 90.27 95.96 91.74 95.96 93.21 C 95.12 94.16 94.25 95.08 93.36 95.99 C 84.44 95.91 75.52 95.95 66.60 95.97 C 65.77 95.09 64.94 94.22 64.16 93.30 C 63.95 91.14 63.89 88.97 63.88 86.80 C 66.85 86.38 69.86 86.36 72.83 86.73 C 71.53 87.62 70.20 88.46 68.87 89.30 C 69.76 90.14 70.65 90.99 71.54 91.84 C 75.67 89.21 78.64 85.10 79.21 80.16 Z"
     id="path244" />
  <path
     fill="#25aacf"
     d=" M 125.24 81.67 C 125.93 81.74 127.30 81.86 127.99 81.93 C 127.99 84.19 128.05 86.45 128.04 88.71 C 125.48 88.50 122.91 88.30 120.35 88.11 C 120.06 87.19 119.77 86.27 119.48 85.36 C 121.68 84.62 123.55 83.23 125.24 81.67 Z"
     id="path246" />
  <path
     fill="#f4ba0d"
     d=" M 8.47 84.52 C 13.19 83.11 19.37 90.18 14.72 93.91 C 10.68 96.50 3.76 95.80 1.76 90.97 C 0.53 86.84 5.14 84.76 8.47 84.52 Z"
     id="path248" />
  <path
     fill="#ed4512"
     d=" M 47.56 87.66 C 53.02 86.97 58.96 88.17 63.90 85.17 C 63.90 85.58 63.89 86.39 63.88 86.80 C 63.89 88.97 63.95 91.14 64.16 93.30 C 63.22 94.16 62.30 95.04 61.32 95.85 C 56.30 96.21 51.26 95.94 46.23 96.03 C 48.10 93.63 49.01 90.52 47.56 87.66 Z"
     id="path250" />
  <path
     fill="#0d9e3c"
     d=" M 19.92 86.32 C 24.04 85.72 28.42 85.44 32.04 87.89 C 32.25 90.85 31.94 94.19 29.25 96.00 C 24.89 96.03 20.52 95.97 16.15 95.98 C 18.69 93.40 20.58 90.07 19.92 86.32 Z"
     id="path252" />
  <path
     fill="#11a0c7"
     d=" M 96.01 87.57 C 98.30 87.47 100.59 87.44 102.88 87.48 C 102.19 89.44 101.55 91.40 100.93 93.38 C 104.42 91.72 107.63 89.49 111.24 88.08 C 115.10 89.17 118.33 91.75 121.96 93.39 C 121.44 91.63 120.90 89.87 120.35 88.11 C 122.91 88.30 125.48 88.50 128.04 88.71 C 128.08 91.33 128.14 94.25 125.67 95.87 C 116.63 96.20 107.59 95.91 98.56 95.97 C 97.91 95.28 96.61 93.90 95.96 93.21 C 95.96 91.74 95.98 90.27 95.99 88.81 L 96.01 87.57 Z"
     id="path254" />
  <path
     fill="#eb4511"
     d=" M 34.52 89.23 C 36.72 88.39 38.98 87.74 41.27 87.17 C 42.73 88.69 44.71 89.95 45.39 92.04 C 45.34 93.54 44.34 94.75 43.76 96.07 C 40.78 96.06 37.79 95.99 34.81 95.92 C 34.29 95.58 33.25 94.91 32.73 94.58 C 33.42 92.83 33.99 91.03 34.52 89.23 Z"
     id="path256" />
  <path
     fill="#34c2e7"
     d=" M 98.56 95.97 C 107.59 95.91 116.63 96.20 125.67 95.87 C 126.74 97.38 128.14 98.90 127.93 100.91 C 127.94 108.62 128.12 116.34 127.90 124.04 C 128.10 125.87 126.49 126.92 125.32 128.00 L 98.42 128.00 C 97.62 127.08 96.83 126.17 96.03 125.26 C 96.15 116.43 95.92 107.60 96.07 98.77 C 96.90 97.83 97.73 96.90 98.56 95.97 Z"
     id="path262" />
  <path
     fill="#648ee4"
     d=" M 0.00 98.07 C 4.53 94.36 10.81 96.45 16.15 95.98 C 20.52 95.97 24.89 96.03 29.25 96.00 C 30.13 96.76 31.00 97.53 31.87 98.30 C 32.05 100.44 32.20 102.59 32.34 104.74 C 31.77 104.75 30.63 104.78 30.06 104.80 C 30.02 103.14 29.99 101.49 29.92 99.84 C 29.89 99.37 29.83 98.45 29.80 97.99 C 20.58 97.58 11.31 97.50 2.09 97.99 C 1.94 100.28 1.78 102.58 1.70 104.88 C 1.27 104.51 0.42 103.79 0.00 103.43 L 0.00 98.07 Z"
     id="path264" />
  <path
     fill="#80cadc"
     d=" M 31.87 98.30 C 32.85 97.50 33.83 96.71 34.81 95.92 C 37.79 95.99 40.78 96.06 43.76 96.07 C 44.38 96.06 45.61 96.04 46.23 96.03 C 51.26 95.94 56.30 96.21 61.32 95.85 C 62.24 96.79 63.15 97.74 64.06 98.69 C 63.90 100.26 63.82 101.84 63.80 103.42 C 63.56 103.07 63.09 102.38 62.85 102.03 C 62.50 101.58 61.81 100.66 61.47 100.21 C 58.84 100.34 56.20 100.51 53.56 100.47 C 50.48 100.00 47.35 99.97 44.26 100.42 C 40.77 100.43 37.29 100.18 33.81 100.13 C 33.72 101.61 33.63 103.10 33.60 104.59 C 33.29 104.62 32.65 104.70 32.34 104.74 C 32.20 102.59 32.05 100.44 31.87 98.30 Z"
     id="path266" />
  <path
     fill="#36506a"
     d=" M 66.60 95.97 C 75.52 95.95 84.44 95.91 93.36 95.99 C 94.27 96.91 95.17 97.83 96.07 98.77 C 95.92 107.60 96.15 116.43 96.03 125.26 C 95.14 126.23 94.20 127.14 93.20 128.00 L 66.80 128.00 C 65.84 127.18 64.91 126.32 64.06 125.40 C 63.96 123.64 63.94 121.89 63.94 120.14 C 63.94 117.39 63.99 114.64 64.01 111.88 C 64.03 109.06 63.96 106.24 63.80 103.42 C 63.82 101.84 63.90 100.26 64.06 98.69 C 64.87 97.75 65.74 96.86 66.60 95.97 Z"
     id="path268" />
  <path
     fill="#6697f9"
     d=" M 2.09 97.99 C 11.31 97.50 20.58 97.58 29.80 97.99 C 29.83 98.45 29.89 99.37 29.92 99.84 C 26.01 99.86 22.08 99.81 18.22 99.13 C 16.71 98.89 15.21 98.56 13.69 98.32 C 13.86 101.88 14.04 105.47 13.61 109.02 C 9.89 108.82 6.17 108.69 2.46 108.59 C 2.21 107.35 1.96 106.11 1.70 104.88 C 1.78 102.58 1.94 100.28 2.09 97.99 Z"
     id="path270" />
  <path
     fill="#6cdffc"
     d=" M 97.73 99.96 C 98.29 97.00 101.88 98.09 104.04 97.79 C 111.17 98.13 118.38 97.26 125.46 98.24 C 125.63 98.68 125.98 99.55 126.16 99.99 C 116.68 100.05 107.20 100.10 97.73 99.96 Z"
     id="path272" />
  <path
     fill="#ffffff"
     d=" M 13.69 98.32 C 15.21 98.56 16.71 98.89 18.22 99.13 C 18.05 101.61 17.88 104.09 17.93 106.58 C 18.37 108.20 18.85 109.81 19.43 111.38 C 20.68 113.83 22.44 116.00 24.59 117.71 C 26.14 118.58 27.74 119.36 29.33 120.16 C 28.18 121.46 27.04 122.77 25.91 124.08 C 21.88 121.42 18.36 117.97 16.30 113.54 C 14.04 118.06 10.21 121.44 5.98 124.08 C 4.92 123.04 3.87 122.01 2.80 120.99 C 4.04 120.29 5.28 119.61 6.51 118.88 C 10.04 116.63 12.41 112.99 13.61 109.02 C 14.04 105.47 13.86 101.88 13.69 98.32 Z"
     id="path274" />
  <path
     fill="#6999fa"
     d=" M 18.22 99.13 C 22.08 99.81 26.01 99.86 29.92 99.84 C 29.99 101.49 30.02 103.14 30.06 104.80 C 25.98 104.99 21.58 104.33 17.93 106.58 C 17.88 104.09 18.05 101.61 18.22 99.13 Z"
     id="path276" />
  <path
     fill="#66cbe4"
     d=" M 33.81 100.13 C 37.29 100.18 40.77 100.43 44.26 100.42 C 39.46 102.65 35.89 107.50 36.84 113.00 C 35.89 110.15 34.71 107.38 33.60 104.59 C 33.63 103.10 33.72 101.61 33.81 100.13 Z"
     id="path278" />
  <path
     fill="#ffffff"
     d=" M 44.26 100.42 C 47.35 99.97 50.48 100.00 53.56 100.47 C 56.89 102.23 59.54 105.03 60.96 108.53 C 60.96 110.05 60.96 111.58 60.92 113.10 C 60.15 115.01 59.12 116.81 57.87 118.45 C 57.54 118.72 56.87 119.28 56.54 119.55 C 55.38 119.19 54.22 118.83 53.07 118.47 C 55.17 116.98 56.81 114.97 58.05 112.72 C 57.99 110.13 57.61 107.28 55.56 105.46 C 51.38 101.20 43.24 102.16 40.51 107.58 C 38.83 110.57 40.92 113.89 40.35 117.06 C 39.77 116.98 38.61 116.81 38.03 116.73 C 37.63 115.48 37.24 114.24 36.84 113.00 C 35.89 107.50 39.46 102.65 44.26 100.42 Z"
     id="path280" />
  <path
     fill="#66cbe4"
     d=" M 53.56 100.47 C 56.20 100.51 58.84 100.34 61.47 100.21 C 61.81 100.66 62.50 101.58 62.85 102.03 C 62.17 104.19 61.48 106.33 60.96 108.53 C 59.54 105.03 56.89 102.23 53.56 100.47 Z"
     id="path282" />
  <path
     fill="#ffffff"
     d=" M 77.12 100.35 C 77.83 100.33 79.27 100.30 79.99 100.28 C 80.00 102.18 80.01 104.08 80.02 105.98 C 81.88 105.99 83.75 106.00 85.61 106.01 C 85.61 107.34 85.60 108.66 85.60 109.99 C 83.73 110.00 81.86 110.00 80.00 110.01 C 80.03 112.62 79.77 115.28 80.33 117.86 C 82.19 119.49 84.64 118.27 86.51 117.39 C 86.53 118.38 86.57 120.34 86.59 121.33 C 83.35 123.01 78.88 123.53 75.99 120.90 C 73.97 117.71 74.98 113.66 74.78 110.09 C 74.14 110.04 72.86 109.95 72.22 109.90 C 72.26 108.80 72.29 107.69 72.33 106.59 C 74.71 105.19 76.43 103.03 77.12 100.35 Z"
     id="path284" />
  <path
     fill="#46d6fa"
     d=" M 97.73 99.96 C 107.20 100.10 116.68 100.05 126.16 99.99 C 125.80 104.42 126.12 108.86 126.01 113.29 L 125.68 112.77 C 125.51 112.47 125.15 111.89 124.97 111.59 C 124.84 111.31 124.58 110.75 124.44 110.47 C 122.56 108.04 120.76 105.51 118.52 103.38 C 118.51 102.80 118.49 101.63 118.48 101.05 C 114.12 100.99 112.81 105.54 111.46 108.83 C 108.55 106.40 105.22 104.55 101.65 103.29 C 102.26 104.74 102.89 106.19 103.53 107.63 C 103.29 107.93 102.81 108.52 102.56 108.81 C 101.14 107.90 99.61 107.18 98.11 106.41 C 98.03 104.26 97.92 102.11 97.73 99.96 Z"
     id="path286" />
  <path
     fill="#ffffff"
     d=" M 111.46 108.83 C 112.81 105.54 114.12 100.99 118.48 101.05 C 118.49 101.63 118.51 102.80 118.52 103.38 C 120.76 105.51 122.56 108.04 124.44 110.47 C 124.58 110.75 124.84 111.31 124.97 111.59 C 125.15 111.89 125.51 112.47 125.68 112.77 C 121.71 113.14 121.73 117.92 119.15 120.12 C 113.41 126.40 102.66 124.52 97.83 118.06 C 101.04 119.42 104.47 119.65 107.72 118.25 C 107.21 116.92 106.71 115.59 106.24 114.26 C 105.51 113.84 104.80 113.39 104.11 112.91 C 104.27 112.40 104.59 111.38 104.75 110.87 C 104.03 110.17 103.30 109.48 102.56 108.81 C 102.81 108.52 103.29 107.93 103.53 107.63 C 102.89 106.19 102.26 104.74 101.65 103.29 C 105.22 104.55 108.55 106.40 111.46 108.83 Z"
     id="path288" />
  <path
     fill="#56c4df"
     d=" M 40.51 107.58 C 43.24 102.16 51.38 101.20 55.56 105.46 C 57.61 107.28 57.99 110.13 58.05 112.72 C 56.46 112.02 54.87 111.30 53.29 110.58 C 51.63 109.03 49.65 106.57 47.11 107.96 C 45.07 108.66 45.49 111.21 45.05 112.88 C 43.91 114.35 42.74 115.80 41.55 117.22 L 40.35 117.06 C 40.92 113.89 38.83 110.57 40.51 107.58 Z"
     id="path290" />
  <path
     fill="#48b0cb"
     d=" M 62.85 102.03 C 63.09 102.38 63.56 103.07 63.80 103.42 C 63.96 106.24 64.03 109.06 64.01 111.88 C 62.98 112.29 61.95 112.69 60.92 113.10 C 60.96 111.58 60.96 110.05 60.96 108.53 C 61.48 106.33 62.17 104.19 62.85 102.03 Z"
     id="path292" />
  <path
     fill="#497eec"
     d=" M 0.00 103.43 C 0.42 103.79 1.27 104.51 1.70 104.88 C 1.96 106.11 2.21 107.35 2.46 108.59 C 6.17 108.69 9.89 108.82 13.61 109.02 C 12.41 112.99 10.04 116.63 6.51 118.88 C 4.33 118.24 2.14 117.62 0.00 116.86 L 0.00 103.43 Z"
     id="path294" />
  <path
     fill="#5a8df4"
     d=" M 17.93 106.58 C 21.58 104.33 25.98 104.99 30.06 104.80 C 30.63 104.78 31.77 104.75 32.34 104.74 L 31.82 105.62 C 30.91 107.25 30.02 108.90 29.16 110.56 C 25.92 110.86 22.68 111.12 19.43 111.38 C 18.85 109.81 18.37 108.20 17.93 106.58 Z"
     id="path296" />
  <path
     fill="#3db3d4"
     d=" M 32.34 104.74 C 32.65 104.70 33.29 104.62 33.60 104.59 C 34.71 107.38 35.89 110.15 36.84 113.00 C 37.24 114.24 37.63 115.48 38.03 116.73 C 36.03 116.46 34.02 116.28 32.01 116.14 C 31.93 112.63 31.77 109.13 31.82 105.62 L 32.34 104.74 Z"
     id="path298" />
  <path
     fill="#457dec"
     d=" M 29.16 110.56 C 30.02 108.90 30.91 107.25 31.82 105.62 C 31.77 109.13 31.93 112.63 32.01 116.14 C 29.55 116.71 27.07 117.22 24.59 117.71 C 22.44 116.00 20.68 113.83 19.43 111.38 C 22.68 111.12 25.92 110.86 29.16 110.56 Z"
     id="path300" />
  <path
     fill="#3acbef"
     d=" M 98.11 106.41 C 99.61 107.18 101.14 107.90 102.56 108.81 C 103.30 109.48 104.03 110.17 104.75 110.87 C 104.59 111.38 104.27 112.40 104.11 112.91 C 104.80 113.39 105.51 113.84 106.24 114.26 C 106.71 115.59 107.21 116.92 107.72 118.25 C 104.47 119.65 101.04 119.42 97.83 118.06 C 97.95 114.18 97.93 110.29 98.11 106.41 Z"
     id="path302" />
  <path
     fill="#ffffff"
     d=" M 45.05 112.88 C 45.49 111.21 45.07 108.66 47.11 107.96 C 49.65 106.57 51.63 109.03 53.29 110.58 C 52.05 113.27 49.69 114.58 46.74 114.35 C 45.71 115.89 44.70 117.45 43.81 119.09 C 43.00 118.96 41.39 118.70 40.58 118.57 C 40.82 118.23 41.31 117.56 41.55 117.22 C 42.74 115.80 43.91 114.35 45.05 112.88 Z"
     id="path304" />
  <path
     fill="#2eb0d3"
     d=" M 53.29 110.58 C 54.87 111.30 56.46 112.02 58.05 112.72 C 56.81 114.97 55.17 116.98 53.07 118.47 C 50.70 118.90 48.28 118.96 45.88 119.02 C 45.44 119.83 45.00 120.64 44.58 121.46 C 44.17 121.41 43.35 121.31 42.94 121.26 C 43.15 120.72 43.59 119.63 43.81 119.09 C 44.70 117.45 45.71 115.89 46.74 114.35 C 49.69 114.58 52.05 113.27 53.29 110.58 Z"
     id="path306" />
  <path
     fill="#2ca9c7"
     d=" M 60.92 113.10 C 61.95 112.69 62.98 112.29 64.01 111.88 C 63.99 114.64 63.94 117.39 63.94 120.14 C 61.91 119.58 59.89 119.01 57.87 118.45 C 59.12 116.81 60.15 115.01 60.92 113.10 Z"
     id="path308" />
  <path
     fill="#2a64dd"
     d=" M 16.30 113.54 C 18.36 117.97 21.88 121.42 25.91 124.08 C 27.04 122.77 28.18 121.46 29.33 120.16 C 27.74 119.36 26.14 118.58 24.59 117.71 C 27.07 117.22 29.55 116.71 32.01 116.14 C 31.94 119.22 31.94 122.31 31.98 125.40 C 31.05 126.28 30.12 127.15 29.16 128.00 L 1.63 128.00 C 1.87 126.77 1.33 126.11 0.00 126.02 L 0.00 116.86 C 2.14 117.62 4.33 118.24 6.51 118.88 C 5.28 119.61 4.04 120.29 2.80 120.99 C 3.87 122.01 4.92 123.04 5.98 124.08 C 10.21 121.44 14.04 118.06 16.30 113.54 Z"
     id="path310" />
  <path
     fill="#18a5ca"
     d=" M 32.01 116.14 C 34.02 116.28 36.03 116.46 38.03 116.73 C 38.61 116.81 39.77 116.98 40.35 117.06 L 41.55 117.22 C 41.31 117.56 40.82 118.23 40.58 118.57 C 39.90 120.09 39.33 121.66 38.85 123.26 C 38.42 124.83 38.08 126.41 37.71 128.00 L 34.59 128.00 C 33.70 127.15 32.84 126.27 31.98 125.40 C 31.94 122.31 31.94 119.22 32.01 116.14 Z"
     id="path312" />
  <path
     fill="#e7f5c1"
     d=" M 45.88 119.02 C 48.28 118.96 50.70 118.90 53.07 118.47 C 54.22 118.83 55.38 119.19 56.54 119.55 C 53.05 122.04 48.65 122.20 44.58 121.46 C 45.00 120.64 45.44 119.83 45.88 119.02 Z"
     id="path314" />
  <path
     fill="#c0e6b9"
     d=" M 38.85 123.26 C 39.33 121.66 39.90 120.09 40.58 118.57 C 41.39 118.70 43.00 118.96 43.81 119.09 C 43.59 119.63 43.15 120.72 42.94 121.26 C 42.67 122.08 42.43 122.92 42.21 123.76 C 41.09 123.59 39.97 123.43 38.85 123.26 Z"
     id="path316" />
  <path
     fill="#11a0c7"
     d=" M 56.54 119.55 C 56.87 119.28 57.54 118.72 57.87 118.45 C 59.89 119.01 61.91 119.58 63.94 120.14 C 63.94 121.89 63.96 123.64 64.06 125.40 C 63.10 126.28 62.15 127.15 61.16 128.00 L 41.34 128.00 C 41.61 126.58 41.90 125.17 42.21 123.76 C 42.43 122.92 42.67 122.08 42.94 121.26 C 43.35 121.31 44.17 121.41 44.58 121.46 C 48.65 122.20 53.05 122.04 56.54 119.55 Z"
     id="path318" />
  <path
     fill="#b7db57"
     d=" M 38.85 123.26 C 39.97 123.43 41.09 123.59 42.21 123.76 C 41.90 125.17 41.61 126.58 41.34 128.00 L 37.71 128.00 C 38.08 126.41 38.42 124.83 38.85 123.26 Z"
     id="path320" />
</svg>
